<svg id="Layer_1" data-name="Layer 1" xmlns="http://www.w3.org/2000/svg" xmlns:xlink="http://www.w3.org/1999/xlink" viewBox="0 0 156 180"><defs><style>.cls-1{fill:url(#linear-gradient);}.cls-2{fill:url(#linear-gradient-2);}.cls-3{fill:url(#linear-gradient-3);}.cls-4{fill:url(#linear-gradient-4);}.cls-5{fill:url(#linear-gradient-5);}</style><linearGradient id="linear-gradient" x1="82.84" y1="103.26" x2="57.99" y2="167.74" gradientUnits="userSpaceOnUse"><stop offset="0" stop-color="#004fa4"/><stop offset="0.15" stop-color="#0068a9"/><stop offset="0.39" stop-color="#008baf"/><stop offset="0.62" stop-color="#00a4b4"/><stop offset="0.83" stop-color="#00b3b7"/><stop offset="1" stop-color="#00b8b8"/></linearGradient><linearGradient id="linear-gradient-2" x1="-17.92" y1="96.85" x2="121.61" y2="96.85" gradientUnits="userSpaceOnUse"><stop offset="0" stop-color="#59b5ff"/><stop offset="1" stop-color="#2a00ba"/></linearGradient><linearGradient id="linear-gradient-3" x1="27.74" y1="11.15" x2="110.36" y2="125.35" gradientUnits="userSpaceOnUse"><stop offset="0" stop-color="#ce00ff"/><stop offset="1" stop-color="#4500ba"/></linearGradient><linearGradient id="linear-gradient-4" x1="108.45" y1="4.84" x2="67.48" y2="114.33" gradientUnits="userSpaceOnUse"><stop offset="0" stop-color="#ff00ae"/><stop offset="1" stop-color="#760022"/></linearGradient><linearGradient id="linear-gradient-5" x1="156.76" y1="56.18" x2="54.62" y2="52.82" gradientUnits="userSpaceOnUse"><stop offset="0" stop-color="#ffba00"/><stop offset="1" stop-color="#c22700"/></linearGradient></defs><path class="cls-1" d="M119,115.12a36.94,36.94,0,1,1-.58-48.9l38-37.11A90,90,0,1,0,157,152.25Z" transform="translate(-1 -1)"/><path class="cls-2" d="M119.15,115.24l-.13-.12a36.94,36.94,0,1,1-8-55.18A69.8,69.8,0,0,0,21.2,34.2,90,90,0,0,0,40.83,165.72a69.82,69.82,0,0,0,78.32-50.48Z" transform="translate(-1 -1)"/><path class="cls-3" d="M91,54.06a36.84,36.84,0,0,1,27.4,12.16l17.33-16.93A69.87,69.87,0,0,0,90,1,90,90,0,0,0,1.14,86a69.75,69.75,0,0,0,117.93,29.21l0,0A36.95,36.95,0,1,1,91,54.06Z" transform="translate(-1 -1)"/><path class="cls-4" d="M91,1A90,90,0,0,0,63,5.47,69.72,69.72,0,0,0,75.83,124.69l0,0a36.94,36.94,0,1,1,42.66-58.43l38-37.11A89.81,89.81,0,0,0,91,1Z" transform="translate(-1 -1)"/><path class="cls-5" d="M54.32,86.88a37,37,0,0,1,64.12-20.66l38-37.11-.09-.08a69.75,69.75,0,0,0-102,57.85Z" transform="translate(-1 -1)"/></svg>