<?xml version="1.0" encoding="UTF-8"?>
<svg version="1.1" viewBox="0 0 21.001 21" xmlns="http://www.w3.org/2000/svg">
<path d="m21.001 11c0-1.58-0.875-2.95-2.148-3.6 0.154-0.435 0.238-0.905 0.238-1.4 0-2.21-1.71-3.998-3.818-3.998-0.47 0-0.92 0.084-1.336 0.25-0.618-1.337-1.926-2.252-3.436-2.252s-2.816 0.917-3.437 2.25c-0.415-0.165-0.866-0.25-1.336-0.25-2.11 0-3.818 1.79-3.818 4 0 0.494 0.083 0.964 0.237 1.4-1.272 0.65-2.147 2.018-2.147 3.6 0 1.495 0.782 2.798 1.942 3.486-0.02 0.17-0.032 0.34-0.032 0.514 0 2.21 1.708 4 3.818 4 0.47 0 0.92-0.086 1.335-0.25 0.62 1.334 1.926 2.25 3.437 2.25 1.512 0 2.818-0.916 3.437-2.25 0.415 0.163 0.865 0.248 1.336 0.248 2.11 0 3.818-1.79 3.818-4 0-0.174-0.012-0.344-0.033-0.513 1.158-0.687 1.943-1.99 1.943-3.484zm-6.616-3.334-4.334 6.5c-0.145 0.217-0.382 0.334-0.625 0.334-0.143 0-0.288-0.04-0.416-0.126l-0.115-0.094-2.415-2.415c-0.293-0.293-0.293-0.768 0-1.06s0.768-0.294 1.06 0l1.77 1.767 3.825-5.74c0.23-0.345 0.696-0.436 1.04-0.207 0.346 0.23 0.44 0.696 0.21 1.04z" fill="#68b96e"/>
</svg>
